<svg fill="#FFFFFF" viewBox="0 0 243.3 91.2" xmlns="http://www.w3.org/2000/svg">
<g transform="translate(3737 54.001)">
   <path d="M-3673.9-20.2c1.5-0.5,8.2-1.1,8.2,3c0,1.2-0.9,2.1-2,2.2c-0.1,0-0.1,0-0.2,0 c-2.9,0.1-1.7-3.4-1.8-3.4c-6.9,0-4.1,14.9-3.9,17.2c0.1,1.3-0.8,2.4-2.1,2.5c-0.1,0-0.3,0-0.4,0c-1,0.1-1.9-0.5-2.2-1.5 c-0.5-1.4-0.6-14.7,6.2-19.1c-1.9,0-7.4,3.7-9.8,11.1c0.2,1.8,0.2,3.7,0,5.5c-0.1,2-0.6,3.3-2.4,3.3c-1.5,0-2.5-1.1-2.3-3.3 c0.3-3.9,1.7-15.4-2.2-17.2c-4.2,1.6-2.2,16.2-2.2,17.2c0.1,1.5-0.3,3.3-2.5,3.3c-2.4,0-2.3-1.5-2.4-3.3c0-1.5,0.1-4.2,0.2-5.5 c-3.3-7.8-8-11.1-9.8-11.1c6.8,4.4,6.6,17.7,6.1,19.1c-0.2,1-1.2,1.6-2.2,1.5c-1.3,0.1-2.5-1-2.5-2.3c0-0.1,0-0.2,0-0.3 c0.3-2.3,3-17.2-3.9-17.2c-0.1,0,1.1,3.4-1.8,3.4c-1.2,0.1-2.1-0.8-2.2-2c0-0.1,0-0.1,0-0.2c0-4.1,6.7-3.6,8.2-3 c3.4,1.2,6.6,4.9,8.4,9.1c0.7-4.4,3.3-9.5,6.5-10.1c3.2,0.5,5.7,5.7,6.6,10C-3680.6-15.1-3678.2-18.2-3673.9-20.2 M-3703.6,4.3 c0,1.2,0.9,2.1,2.1,2.1c1.2,0,2.1-0.9,2.1-2.1c0-1.2-0.9-2.1-2.1-2.1c0,0,0,0,0,0C-3702.7,2.2-3703.6,3.1-3703.6,4.3 M-3695.8,3.8 c0,1.2,0.9,2.1,2.1,2.1c1.2,0,2.1-0.9,2.1-2.1c0-1.2-0.9-2.1-2.1-2.1C-3694.8,1.7-3695.8,2.6-3695.8,3.8 C-3695.8,3.8-3695.8,3.8-3695.8,3.8 M-3686.3,3.6c0,1.2,1,2.1,2.1,2.1s2.1-1,2.1-2.1c0-1.2-0.9-2.1-2.1-2.1 C-3685.4,1.5-3686.3,2.4-3686.3,3.6C-3686.3,3.6-3686.3,3.6-3686.3,3.6 M-3678.3,4.2c0,1.2,0.9,2.1,2.1,2.1c1.2,0,2.1-0.9,2.1-2.1 s-0.9-2.1-2.1-2.1c0,0,0,0,0,0C-3677.3,2.1-3678.3,3-3678.3,4.2C-3678.3,4.2-3678.3,4.2-3678.3,4.2 M-3667.8,28.6 c0.1,0,0.1,0,0.2-0.1v0c0.3,0.4,0.8,0.6,1.2,0.6c0.8,0,1.4-0.5,1.6-1.2c10.9-1.5,9.7-15.1,13.6-15.8c-2.1-0.2-3.4,1.5-4.6,3.8 c0.1-4-1.8-8-2.1-9.8c-0.3-1.1,1.2-1.9,2.1-1.1c0.6,0.8,0.7,1.8,0.3,2.6c0.8,0.2,1.7-1.6,0.5-2.9c-1.3-1.6-3.9-1-3.9,1 c0.8,4.8,3.2,8.9,1.6,12.6c-0.2,0.4-0.3,0.7-0.4,1.1c1.5-6.5-7.2-15-7.4-17.7c-0.3-1.8,2.6-2.1,1.1,0.8c0.9-0.1,1.5-0.9,1.5-1.8 c0-0.1,0-0.1,0-0.2c-0.1-0.8-0.8-1.4-1.6-1.3c-0.8,0.1-1.6,0.7-1.8,1.5c-0.3,1.2,0.7,3.8,2.7,6.8c3.1,4.4,5.5,9.6,4.1,13 c-0.9-6-5.7-5.5-8.2-9.6c-1.8-2.9,3.4-4.5,1.6,0.2c2.5-0.5,1.5-3.5-0.4-3.9c-1.2-0.2-2.4,0.7-2.6,1.9c-0.3,1.1,0.4,3.2,3,5.3 c-4.3-0.3-6.8,3.3-4.2,4.9c0-5.3,9.6-3.5,9.8,1.8c-4.6-6.9-10,0.6-5.8,2.2c0.9,0.3,1.9-0.1,2.4-0.9c0.1-0.1-2,0.3-2.1-1.2 c0-0.7,0.6-1.2,1.3-1.2c1.6,0.1,3.6,3.6-0.6,6.4c-0.3-0.4-0.8-0.6-1.3-0.6c-0.8,0-1.5,0.6-1.6,1.4c-7.1-0.8-5.6-12.6-5.6-16.8 c0.1-4.4-5.3-4.2-5.2-0.6c0,3.3,2.5,15.1,6.5,17.2c-5.6-0.5-9.4-8.7-9.4-17.4c0-3.4-3-3.4-4.1-1.8c0,0,0,0,0-0.1l-0.1,0.1l0,0 c-0.1,0.1-0.2,0.3-0.2,0.4c-0.6,1.2-1.8,3.5-2.8,6v3.1c0.1,0.2,0.1,0.4,0.1,0.6c0.6,2.1,1,4.3,1.3,6.5c0.3,2.3-0.9,2.9-1.4,3v1.2 c3.9-0.8,2.6-7.4,0.5-13.1c0.6-1.7,1.4-3.4,2.4-5C-3685.2,16-3681.5,29.7-3667.8,28.6 M-3688.8,28.8v-1.2h0c-1.5-0.1-1.5-2.1-1.4-3 c0.2-2.2,0.5-4.4,1.1-6.5c0,0,0.1-0.3,0.3-0.9c0,0.1,0,0.2,0.1,0.3v-3.1l-0.1,0.1c-0.9-2.3-2-4.5-3.3-6.5c-1.1-1.6-4.1-1.5-4.1,1.8 c0,8.7-3.8,17-9.4,17.4c4-2.1,6.5-13.9,6.5-17.2c0.1-3.6-5.4-3.8-5.3,0.6c0.1,4.2,1.5,16.2-5.7,16.8c-0.1,0-0.1,0-0.2,0 c-0.1-0.8-0.8-1.4-1.6-1.4c-0.5,0-0.9,0.2-1.3,0.6c-4.2-2.7-2.2-6.3-0.6-6.4c0.7,0,1.2,0.5,1.3,1.2c-0.2,1.4-2.2,1.1-2.1,1.2 c0.5,0.8,1.5,1.1,2.4,0.9c4.2-1.6-1.2-9.1-5.8-2.2c0.2-5.3,9.8-7.1,9.8-1.8c2.6-1.5,0.2-5.2-4.2-4.9c2.5-2.1,3.2-4.3,2.9-5.3 c-0.2-1.2-1.3-2.1-2.6-1.9c-1.9,0.4-2.9,3.4-0.4,3.9c-1.7-4.6,3.5-3.1,1.6-0.2c-2.5,4.1-7.3,3.6-8.2,9.6c-1.4-3.5,1-8.7,4.1-13 c2.1-3,3-5.5,2.7-6.8c-0.3-0.8-1-1.4-1.8-1.5c-0.8,0-1.5,0.5-1.6,1.3c-0.2,0.9,0.3,1.7,1.2,1.9c0.1,0,0.1,0,0.2,0 c-1.5-2.9,1.4-2.6,1.1-0.8c-0.3,2.7-8.9,11.2-7.4,17.7c-0.1-0.2-0.2-0.7-0.4-1.1c-1.6-3.7,0.8-7.7,1.6-12.6c0-2.1-2.6-2.6-3.9-1 c-1.2,1.2-0.3,3.1,0.5,2.9c-0.4-0.9-0.2-1.9,0.3-2.6c0.5-0.5,1.3-0.5,1.8,0.1c0.3,0.3,0.4,0.7,0.3,1c-0.3,1.9-2.2,5.9-2.1,9.8 c-1.2-2.3-2.5-3.9-4.6-3.8c3.9,0.7,2.7,14.2,13.5,15.8c0.2,0.7,0.9,1.2,1.6,1.2c0.5,0,1-0.2,1.3-0.6v0c0.1,0,0.2,0,0.3,0.1 c14.2,1.3,17.8-13.3,18.4-18.2c1.2,1.6,2.1,3.4,2.7,5.3C-3691.4,21.5-3693.2,28.2-3688.8,28.8 C-3688.8,28.8-3688.8,28.8-3688.8,28.8 M-3689.9-42.6l-0.7,2.1l1.8-1.3l1.8,1.3l-0.7-2.1l1.8-1.3h-2.2l-0.7-2.1l-0.7,2.1h-2.3 L-3689.9-42.6z M-3689.9-28.2l-0.7,2.1l1.8-1.3l1.8,1.3l-0.7-2.1l1.8-1.3h-2.2l-0.7-2.1l-0.7,2.1h-2.3L-3689.9-28.2z M-3697.6-41.8 l-0.7,2.1l1.8-1.3l1.8,1.3l-0.7-2.1l1.8-1.3h-2.2l-0.7-2.1l-0.7,2.1h-2.3L-3697.6-41.8z M-3697.6-28.9l-0.7,2.1l1.8-1.3l1.8,1.3 l-0.7-2.1l1.8-1.3h-2.2l-0.7-2.1l-0.7,2.1h-2.3L-3697.6-28.9z M-3704.7-39.9l-0.7,2.1l1.8-1.3l1.8,1.3l-0.7-2.1l1.8-1.3h-2.2 l-0.7-2.1l-0.7,2.1h-2.3L-3704.7-39.9z M-3704.7-30.6l-0.7,2.1l1.8-1.3l1.8,1.3l-0.7-2.1l1.8-1.3h-2.2l-0.7-2.1l-0.7,2.1h-2.3 L-3704.7-30.6z M-3682.3-41.8l-0.7,2.1l1.8-1.3l1.8,1.3l-0.7-2.1l1.8-1.3h-2.2l-0.7-2.1l-0.7,2.1h-2.3L-3682.3-41.8z M-3682.3-28.9 l-0.7,2.1l1.8-1.3l1.8,1.3l-0.7-2.1l1.8-1.3h-2.2l-0.7-2.1l-0.7,2.1h-2.3L-3682.3-28.9z M-3675.2-39.9l-0.7,2.1l1.8-1.3l1.8,1.3 l-0.7-2.1l1.8-1.3h-2.2l-0.7-2.1l-0.7,2.1h-2.3L-3675.2-39.9z M-3675.2-30.6l-0.7,2.1l1.8-1.3l1.8,1.3l-0.7-2.1l1.8-1.3h-2.2 l-0.7-2.1l-0.7,2.1h-2.3L-3675.2-30.6z M-3669.7-35.2l-0.7,2.1l1.8-1.3l1.8,1.3l-0.7-2.1l1.8-1.3h-2.2l-0.7-2.1l-0.7,2.1h-2.3 L-3669.7-35.2z M-3710.2-35.2l-0.7,2.1l1.8-1.3l1.8,1.3l-0.7-2.1l1.8-1.3h-2.2l-0.7-2.1l-0.7,2.1h-2.3L-3710.2-35.2z" />
   <g>
      <path d="m -3635.5072,-5.8662897 v -8.7564083 q 0,-1.899538 -0.278,-2.386005 -0.278,-0.486467 -1.3204,-0.579127 l -0.5791,-0.04633 q -0.093,-0.06949 -0.093,-0.301146 0.023,-0.231651 0.139,-0.277981 2.0154,0.06949 3.1041,0.06949 1.2509,0 2.6408,-0.06949 0.1159,0.04633 0.1159,0.277981 0.023,0.231651 -0.07,0.301146 l -0.3475,0.04633 q -0.9961,0.13899 -1.2046,0.602292 -0.2085,0.463302 -0.2085,2.36284 v 8.5942526 q 0,3.1967838 -0.5328,4.4940294 -0.6023,1.45940132 -1.8069,2.38600533 -1.2045,0.94976907 -2.7566,0.94976907 -0.9961,0 -0.9961,-0.4864671 0,-0.32431137 0.2548,-0.69495297 0.2317,-0.37064161 0.5791,-0.37064161 0.417,0 0.8572,0.1389906 0.5791,0.16215571 0.9729,0.16215571 0.6254,0 0.9266,-0.60229261 0.6023,-1.22775032 0.6023,-5.81444012 z" />
      <path d="m -3621.5155,-2.4841851 q -3.7296,0 -5.9998,-2.2933449 -2.247,-2.2933449 -2.247,-5.559624 0,-3.49793 2.3397,-5.837605 2.3397,-2.339675 5.9071,-2.339675 3.7991,0 5.9071,2.339675 2.1312,2.31651 2.1312,5.605954 0,3.474765 -2.3397,5.791275 -2.3165,2.2933449 -5.6986,2.2933449 z m 0.3011,-0.7181181 q 2.2702,0 3.8454,-1.7142174 1.5753,-1.7142174 1.5753,-4.9341663 0,-1.5057311 -0.3475,-2.8724721 -0.3475,-1.366741 -1.0424,-2.524996 -0.695,-1.158255 -1.9227,-1.853208 -1.2046,-0.694953 -2.803,-0.694953 -0.973,0 -1.8996,0.347476 -0.9034,0.347477 -1.7605,1.08876 -0.8571,0.741283 -1.3667,2.108024 -0.5097,1.366741 -0.5097,3.173619 0,1.065594 0.2085,2.131189 0.2085,1.0655946 0.6718,2.1311892 0.4865,1.0424295 1.1814,1.8300429 0.695,0.7876134 1.7606,1.2972456 1.0887,0.4864671 2.4091,0.4864671 z" />
      <path d="m -3609.4465,-6.3295917 v -8.3162713 q 0,-1.691052 -0.1622,-2.154354 -0.1621,-0.463302 -0.8571,-0.555962 l -0.7413,-0.09266 q -0.1158,-0.09266 -0.1158,-0.301146 0,-0.208486 0.139,-0.277981 2.0848,-0.185321 5.1658,-0.185321 2.5945,0 3.8686,0.694953 1.9227,0.996099 1.9227,3.243114 0,1.482566 -0.9035,2.455501 -0.8802,0.972934 -1.9922,1.413071 -0.139,0.162155 0.1159,0.5559621 1.5752,2.5249959 2.5713,3.8917368 0.9961,1.3435758 2.0848,2.2701798 0.6487,0.5791275 1.5984,0.6486228 0.093,0.04633 0.093,0.1621557 0.023,0.09266 -0.07,0.1621557 -0.3475,0.1158255 -1.0193,0.1158255 -1.5289,0 -2.5713,-0.6022926 -1.0193,-0.6022926 -2.2238,-2.31651 -0.3012,-0.4401369 -1.112,-1.7142174 -0.8107,-1.2740805 -1.1582,-1.7837127 -0.278,-0.3938067 -0.6255,-0.5559624 -0.3475,-0.1853208 -1.0192,-0.1853208 -0.7877,0 -0.9498,0.069495 -0.139,0.069495 -0.139,0.4401369 v 2.9188026 q 0,1.8763731 0.1853,2.31651 0.2085,0.4401369 1.2046,0.5791275 l 0.4865,0.069495 q 0.093,0.09266 0.07,0.3243114 0,0.2084859 -0.1159,0.2548161 -1.552,-0.069495 -2.7566,-0.069495 -1.2741,0 -2.8956,0.069495 -0.1159,-0.04633 -0.139,-0.2548161 0,-0.2084859 0.093,-0.3243114 l 0.5792,-0.069495 q 0.9729,-0.1158255 1.1814,-0.5559624 0.2085,-0.463302 0.2085,-2.3396751 z m 1.8995,-10.4242953 v 5.420634 q 0,0.671788 0.07,0.764448 0.1158,0.115825 1.5984,0.115825 1.5984,0 2.386,-0.602292 1.1582,-0.903439 1.1582,-2.872473 0,-1.505731 -0.9497,-2.524995 -0.9498,-1.04243 -2.7567,-1.04243 -1.0424,0 -1.274,0.115826 -0.2317,0.115825 -0.2317,0.625457 z" />
      <path d="m -3582.0423,-12.329353 v 5.5364593 q 0,3.4515999 0.07,4.0538925 -0.093,0.2548161 -0.4401,0.2548161 -0.4401,-0.6254577 -2.9651,-3.4979301 l -5.3743,-6.1155868 q -0.139,-0.162155 -1.2741,-1.482566 -1.1351,-1.343576 -1.4131,-1.644722 h -0.046 q -0.1158,0.347476 -0.1158,1.505731 v 5.0499922 q 0,4.0538925 0.4169,4.7951757 0.2085,0.3706416 1.1815,0.4401369 l 0.7181,0.069495 q 0.093,0.1389906 0.07,0.3243114 0,0.1621557 -0.1159,0.2548161 -1.552,-0.069495 -2.7103,-0.069495 -1.2046,0 -2.4091,0.069495 -0.1159,-0.09266 -0.139,-0.2779812 -0.023,-0.2084859 0.093,-0.3011463 l 0.6255,-0.069495 q 0.8571,-0.1158255 1.0192,-0.463302 0.3012,-0.7644483 0.3012,-4.7720106 v -6.6947142 q 0,-1.111925 -0.5096,-1.667887 -0.4402,-0.440137 -1.4363,-0.555962 l -0.3938,-0.04633 q -0.1158,-0.09266 -0.1158,-0.301146 0.023,-0.208486 0.1621,-0.277981 0.973,0.06949 2.6177,0.06949 0.6023,0 1.0656,-0.06949 0.4633,1.158255 3.9612,5.096322 l 2.247,2.524996 q 3.0578,3.4052696 3.8223,4.192883 h 0.046 q 0.093,-0.1158255 0.093,-0.9729342 v -4.9573318 q 0,-4.053892 -0.4633,-4.795175 -0.2085,-0.301147 -1.4363,-0.463302 l -0.3938,-0.04633 q -0.1158,-0.09266 -0.1158,-0.301146 0.023,-0.231651 0.1622,-0.277981 1.5984,0.06949 2.7334,0.06949 1.2046,0 2.386,-0.06949 0.139,0.09266 0.139,0.301146 0.023,0.185321 -0.093,0.277981 l -0.3243,0.04633 q -1.1351,0.18532 -1.2973,0.486467 -0.3475,0.741283 -0.3475,4.77201 z" />
      <path d="m -3568.8845,-5.0786763 -1.0193,-3.1504536 q -0.1158,-0.3938067 -0.2779,-0.4864671 -0.1622,-0.09266 -0.6718,-0.09266 h -3.498 q -0.4401,0 -0.6023,0.09266 -0.1621,0.09266 -0.2779,0.463302 l -0.8108,2.4323355 q -0.5097,1.5288966 -0.5097,1.9227033 0,0.4169718 0.6718,0.463302 l 0.7645,0.069495 q 0.1158,0.09266 0.1158,0.3011463 0,0.2084859 -0.1621,0.2779812 -0.3244,-0.023165 -2.4092,-0.069495 -0.3475,0 -2.2239,0.069495 -0.1158,-0.069495 -0.1158,-0.2779812 -0.023,-0.2084859 0.069,-0.3011463 l 0.7645,-0.069495 q 0.9729,-0.09266 1.3899,-1.1350899 0.1158,-0.3243114 0.4633,-1.1350899 0.3474,-0.8339436 0.7412,-1.853208 0.3939,-1.0192644 0.834,-2.1775194 l 2.3628,-6.2545766 q 0.4633,-1.227751 0.3938,-1.644723 0.6023,-0.18532 1.2046,-0.880273 0.278,0 0.3475,0.208486 0.2548,0.857108 1.0193,3.104123 l 3.1736,9.3123702 q 0.5096,1.4825664 0.8571,1.9227033 0.3706,0.4401369 1.1119,0.5327973 l 0.6255,0.069495 q 0.1158,0.09266 0.093,0.3011463 0,0.2084859 -0.093,0.2779812 -1.4363,-0.069495 -2.803,-0.069495 -0.6486,0 -2.664,0.069495 -0.139,-0.069495 -0.1621,-0.2779812 0,-0.2084859 0.1158,-0.3011463 l 0.6718,-0.069495 q 0.8107,-0.069495 0.8107,-0.4169718 0,-0.3243114 -0.3011,-1.2277503 z m -4.1466,-9.2428747 -1.4594,4.030727 q -0.1389,0.3938069 -0.07,0.4864673 0.07,0.069495 0.556,0.069495 h 2.8493 q 0.5096,0 0.5791,-0.1158255 0.093,-0.1389906 -0.07,-0.6022931 l -1.2509,-3.775911 q -0.3938,-1.18142 -0.5328,-1.459401 h -0.046 q -0.139,0.231651 -0.556,1.366741 z" />
      <path d="m -3561.935,-6.3295917 v -8.3394363 q 0,-1.899538 -0.2316,-2.36284 -0.2085,-0.463302 -1.2741,-0.555962 l -0.5791,-0.04633 q -0.093,-0.06949 -0.093,-0.301146 0.023,-0.231651 0.139,-0.277981 1.9458,0.06949 3.0114,0.06949 1.112,0 2.8494,-0.06949 0.1158,0.04633 0.1158,0.277981 0.023,0.231651 -0.07,0.301146 l -0.556,0.04633 q -0.9961,0.09266 -1.2046,0.555962 -0.2085,0.463302 -0.2085,2.36284 v 8.0614551 q 0,1.158255 0.093,1.6678872 0.093,0.5096322 0.3938,0.8339436 0.5328,0.5327973 2.525,0.5327973 2.2934,0 2.8262,-0.3011463 0.8339,-0.4864671 1.5288,-2.2933449 0.093,-0.09266 0.3244,-0.023165 0.2548,0.04633 0.2548,0.1621557 0,0.231651 -0.3707,1.5288966 -0.3706,1.2740805 -0.6023,1.7142174 -1.7837,-0.069495 -5.7681,-0.069495 h -2.1312 q -1.0656,0 -3.0114,0.069495 -0.1158,-0.04633 -0.139,-0.2548161 0,-0.2084859 0.093,-0.3243114 l 0.6949,-0.069495 q 0.9729,-0.09266 1.1814,-0.5559624 0.2085,-0.463302 0.2085,-2.3396751 z" />
   </g>
   <path d="M-3639.8,26.2l0-1c0.9,0,1.7-0.3,2.4-0.8c0.3-0.6,0.5-1.2,0.5-1.9l0.2-5.3l0.2-5.4 c0-0.3,0-0.5,0-0.6c0.1-0.8,0-1.6-0.2-2.4c-0.6-0.4-1.2-0.6-1.9-0.6c-0.3-0.1-0.5-0.1-0.7-0.1c0-0.2,0-0.5,0-0.6V6.9 c0.4,0,0.8,0,1.3,0l4.4,0.1c0.1,0,0.2,0,0.4,0l0.7,0c0.2,0.2,0.4,0.5,0.5,0.8c0.4,0.7,0.9,1.8,1.5,3.2l0.2,0.4l2.3,5.1 c0.1,0.1,0.1,0.3,0.2,0.5c0.2,0.4,0.3,0.7,0.5,1c0.2,0.3,0.3,0.7,0.5,1.1c0.2,0.4,0.3,0.7,0.5,1c0.2-0.3,0.3-0.5,0.4-0.8 c0.4-0.9,0.8-1.8,1.2-2.5c0.7-1.4,1.6-3.4,2.7-6.2c0.2-0.4,0.5-1.1,0.9-2c0.4-0.9,0.6-1.4,0.7-1.4c0.2-0.1,0.3-0.1,0.5-0.1 c0.1,0,0.3,0,0.5,0c0.5,0,1.1-0.1,1.9-0.1c1,0,1.9,0,2.5-0.1s1-0.1,1.1-0.1c0.1,0,0.2,0,0.4,0c0,0.1,0,0.2,0,0.3l0,0.4 c0,0.1,0,0.2,0,0.4c-0.8,0.1-1.6,0.3-2.3,0.6c-0.4,0.2-0.6,0.4-0.6,0.7v0.2l0.3,4.6c0,0.4,0.1,2.5,0.2,6.2c0,0.8,0.1,1.9,0.2,3.2 c0,0.1,0,0.2,0,0.4c0,0.2,0,0.3,0.2,0.5c0.1,0.1,1,0.4,2.7,0.9c0,0.2,0,0.3,0,0.4c0,0.2,0,0.4,0,0.6c-0.3,0-0.9-0.1-2-0.2 c-1-0.1-2-0.2-3.1-0.2c-1.4,0-2.9,0.1-4.2,0.2c-0.2,0-0.4,0-0.5,0l0-1c0.5-0.2,1.1-0.3,1.6-0.4c0.3,0,0.7-0.2,0.9-0.4 c0.2-0.5,0.3-1,0.2-1.6c0-0.3,0-0.6,0-0.9c0-1-0.1-2.5-0.1-4.4l-0.3-5.3c0-0.7-0.1-1.3-0.1-1.6l-3.7,8.6c-0.1,0.2-0.2,0.5-0.4,0.9 c-0.2,0.5-0.4,0.8-0.5,1c-0.8,1.8-1.3,3.3-1.6,4.2c-0.1,0.2-0.2,0.6-0.4,1l-1.1,0l-0.8-2.3c-0.2-0.6-0.6-1.5-1.2-2.7 c-0.3-0.7-0.6-1.3-0.8-1.7c-0.1-0.2-0.2-0.3-0.2-0.4l-0.2-0.4c0-0.1,0-0.1,0-0.1l-2.2-4.8l-1.4-2.9l-0.1,7.1l-0.1,4.6 c-0.1,0.6,0.1,1.1,0.4,1.6c0.5,0.4,1.2,0.7,1.8,0.8l0.7,0.2v1.1c-0.6,0-1.2-0.1-1.9-0.1c-0.9-0.1-1.8-0.1-2.6-0.1 C-3637.1,26-3638,26.1-3639.8,26.2 M-3612.9,26.2h0.3c0.7,0,1.4-0.1,2.1-0.2l0.6-0.1c2.3,0.2,3.8,0.3,4.4,0.3c0-0.1,0-0.2,0-0.3 c0-0.1,0-0.4,0-0.7c-0.6-0.1-1-0.1-1.1-0.2c-0.5,0-0.9-0.2-1.3-0.4c-0.2-0.1-0.2-0.3-0.2-0.6c0-0.4,0.1-0.7,0.3-1.1 c0.7-1.9,1.1-3,1.3-3.5l5.7,0l1.2,2.9l0.6,1.5c0,0.1,0.1,0.3,0.1,0.4c0,0.1-0.1,0.3-0.1,0.3c-0.3,0.1-0.6,0.2-0.9,0.3l-1.7,0.4 c0,0.3,0,0.7,0,1l0.7,0l2.5-0.1c0.3,0,0.9,0,1.7,0c0.7,0,1.5,0,2.4,0.1c0.9,0.1,1.7,0.1,2.4,0.1c0-0.1,0-0.3,0-0.3 c0-0.2,0-0.5-0.1-0.7c-0.4-0.2-0.9-0.3-1.3-0.3c-0.3,0-0.6-0.1-0.9-0.3c-0.2-0.2-0.3-0.5-0.4-0.7c-0.3-0.6-0.6-1.3-0.8-1.9 c-0.3-0.9-0.6-1.6-0.8-2.1c-0.3-0.8-0.7-1.8-1.2-3s-1-2.5-1.6-3.8l-2.6-6.2l-0.1-0.3h-1.6l-3.5,9.3l-3,7.9 c-0.1,0.3-0.3,0.6-0.6,0.9c-0.4,0.2-0.9,0.3-1.4,0.4c-0.3,0.1-0.7,0.1-1,0.2L-3612.9,26.2z M-3605.8,17.8l2.2-5.8 c0.3,0.6,0.7,1.5,1.2,2.7c0.5,1.2,0.9,2.2,1.2,3.1l-0.4,0C-3602.1,17.8-3603.5,17.8-3605.8,17.8 M-3591.1,25.3c0,0.2,0,0.3,0,0.5 c0,0.1,0,0.2,0,0.5h0.6c0.6,0,1.1,0,1.7-0.1l2.1-0.1c0.1,0,0.3,0,0.6,0c0.4,0,1.7,0.1,3.8,0.3l0.6,0c0,0,0.2,0,0.4,0 c0-0.4,0.1-0.7,0.1-1.1c-0.6-0.2-1.3-0.4-2-0.6c-0.4-0.1-0.8-0.2-1.1-0.4l0.1-2.8l-0.1-3.3c0-0.4,0-0.7,0-1c0.5,0,0.8,0,1,0 c0.5,0,1.1,0.1,1.5,0.3c0.4,0.5,0.8,1.1,1,1.7c1.1,2.1,1.8,3.7,2.3,4.6c0.2,0.4,0.5,0.9,0.9,1.7l0.5,1l0.6-0.1 c0.6-0.1,0.9-0.1,1-0.1l1.5,0c0.4,0,0.8,0,1.2,0.1h0.6l0.8,0.1l0.3,0h0.4c0-0.1,0-0.3,0-0.3c0-0.2,0-0.3-0.1-0.4 c-0.3-0.2-0.7-0.4-1-0.5c-0.4-0.1-0.8-0.3-1.1-0.6c-0.4-0.6-0.8-1.2-1.2-1.8l-2.4-3.9c-0.3-0.4-0.6-0.9-1-1.5 c-0.2-0.2-0.3-0.5-0.5-0.7c1.2-0.3,2.2-1,3-1.9c0.6-0.8,1-1.7,1-2.7c0-1.4-0.7-2.7-1.8-3.6c-1.4-1.1-3.1-1.7-4.9-1.6 c-1.2,0-2.5,0.1-3.7,0.2l-1.9,0.1l-0.8,0c-0.1,0-0.4,0-1.2-0.1c-0.7,0-1.2,0-1.4,0c-0.5,0-0.9,0-1.4,0.1l-0.1,0.2l0,0.9 c0.3,0,0.8,0.1,1.6,0.1l0.9,0.2c0.1,0.6,0.1,1.9,0.1,4c0,0.9,0,2,0,3.1l0,0.8l0,1.4l-0.1,1.8l0,3.3c0,0.8,0,1.3,0,1.4 c0,0.1-0.1,0.3-0.1,0.4c-0.4,0.2-0.9,0.3-1.4,0.3C-3590.3,25-3590.7,25.1-3591.1,25.3 M-3584.4,15.6v-0.4c0-0.7,0-1.3,0-1.8l0-1.6 l0-1.2l0-2l0-0.3c0.4-0.1,0.8-0.1,1.2-0.1c0.7,0,1.4,0,2.1,0.2c0.5,0.2,1,0.5,1.4,0.9c0.3,0.4,0.5,0.8,0.6,1.2 c0.2,0.6,0.3,1.2,0.3,1.8c0,0.9-0.4,1.8-1.1,2.4c-1.1,0.7-2.3,1-3.6,0.9C-3583.5,15.6-3583.9,15.6-3584.4,15.6 M-3569.8,26.2 c0.2,0,0.6,0,1.3-0.1c1-0.1,1.8-0.1,2.3-0.1l2.6,0c1.2,0.1,1.8,0.2,2,0.2c0.1,0,0.3,0,0.4,0c0,0,0.2,0,0.6,0c0.1,0,0.2,0,0.3,0 c0-0.2,0-0.4,0-0.5c0-0.3,0-0.5-0.1-0.7c-0.5-0.1-0.8-0.1-0.9-0.1c-0.6-0.1-1.1-0.1-1.6-0.3c-0.1-0.1-0.1-0.2-0.1-0.3l0-0.6l-0.1-3 l0.1-2l0-3.9c0-0.9,0-2.2,0-3.9c0-0.3,0-0.7,0-1c0-0.4,0-0.8,0.1-1.1c0.4-0.2,0.8-0.3,1.3-0.4c0.5-0.1,1-0.3,1.4-0.4 c0-0.3,0-0.5,0-0.7c0-0.1,0-0.3,0-0.5c-0.2,0-0.6,0-1.4,0.1c-1.3,0.1-2.2,0.1-2.8,0.1c-0.1,0-0.5,0-1,0l-4.3-0.2l0,1.3 c0.1,0,0.3,0,0.5,0c0.7,0,1.4,0.1,2,0.4c0,0.2,0.1,0.3,0.1,0.5l0,0.6l0.1,1.7l0,0.8l0,2c0,0.1,0,1.1-0.1,3.1l0,0.8l0,3.4l0,1.8 c0,0.4-0.1,0.9-0.3,1.3c-0.5,0.2-0.9,0.4-1.4,0.5c-0.5,0.1-0.8,0.2-1,0.3L-3569.8,26.2z M-3546.2,7.3c-0.7-0.3-1.5-0.5-2.3-0.6 c-0.7-0.1-1.4-0.2-2.1-0.3c-1.8-0.1-3.6,0.5-5,1.7c-1.1,1-1.7,2.5-1.7,4c0,0.9,0.2,1.7,0.6,2.5c0.4,0.8,1,1.5,1.7,2 c1.2,0.7,2.5,1.3,3.8,1.7c1.2,0.3,2.3,0.9,3.4,1.6c1.2,0.9,1.4,2.5,0.5,3.7c0,0,0,0.1-0.1,0.1c-0.4,0.5-0.9,0.9-1.6,1.1 c-0.6,0.2-1.2,0.3-1.8,0.3c-0.6,0-1.1-0.1-1.7-0.3c-0.5-0.2-0.9-0.4-1.3-0.8c-0.4-0.4-0.8-0.8-1-1.2c-0.1-0.2-0.4-0.9-0.9-2l-1.4,0 v0.6c0,0.3,0,0.7,0,1.4c0,1.3,0.1,1.9,0.1,2V25c0,0.1,0.1,0.2,0.1,0.3c0.3,0.2,0.6,0.3,0.9,0.4l1.8,0.5c0.8,0.2,1.7,0.3,2.5,0.3 c0.9,0,1.7-0.1,2.6-0.3c0.7-0.2,1.4-0.5,2-0.9c0.5-0.3,1-0.7,1.4-1.1c0.4-0.4,0.7-0.9,0.9-1.4c0.3-0.9,0.5-1.8,0.5-2.8 c0-0.7-0.1-1.5-0.3-2.1c-0.3-0.7-0.7-1.3-1.2-1.8c-0.6-0.6-1.2-1-2-1.3c-0.7-0.3-1.5-0.6-2.2-0.9c-1.3-0.3-2.5-0.9-3.6-1.7 c-0.5-0.5-0.8-1.1-0.9-1.8c0-0.7,0.3-1.4,0.9-1.9c0.6-0.5,1.5-0.8,2.3-0.8c1,0,2,0.4,2.7,1.2c0.6,0.8,1.1,1.7,1.3,2.7l0.2,0 l1.1,0.1l0.2,0c0-0.2,0.1-0.4,0.1-0.6c0-0.8-0.1-1.6-0.2-2.4C-3546,8.3-3546.1,7.8-3546.2,7.3 M-3541.6,6c-0.1,0.2-0.2,0.6-0.3,1.2 c-0.3,1.3-0.8,2.6-1.3,3.9c0.3,0.2,0.6,0.4,0.9,0.6c0.1,0,0.3-0.2,0.6-0.5c0.5-0.8,1.2-1.5,1.9-2c0.6-0.2,1.2-0.3,1.9-0.3 c1.7,0,2.7,0,3,0.1c0.1,0,0.1,0,0.2,0.1c0.1,0.1,0.1,0.1,0.1,0.2c0.1,0.9,0.1,1.9,0.1,2.8l0.1,5.7c0,2.6,0,4.5-0.1,5.7 c0,0.3-0.1,0.5-0.2,0.7c-0.7,0.3-1.4,0.5-2.2,0.7c-0.5,0.1-0.9,0.3-1.2,0.6v0.1l0,0.3c0,0.1,0,0.2,0,0.3c0.2,0,0.5,0,1.1-0.1 c1.5-0.1,2.3-0.2,2.6-0.2c1.9,0,3.2,0,3.9,0.1c0.9,0.1,1.7,0.1,2.6,0.1c0.1,0,0.3,0,0.5,0c0-0.1,0-0.3,0-0.4c0-0.1,0-0.3-0.1-0.7 c-0.3-0.1-0.5-0.2-0.8-0.2c-0.7-0.2-1-0.2-1.1-0.2c-0.3,0-0.6-0.1-0.9-0.2c-0.1-0.5-0.2-1-0.2-1.6l0-1.9l0-4.7v-4.4l0-2 c0-0.3,0-0.6,0.1-1c0.4,0,0.8-0.1,1.1-0.1c1.9,0,2.9,0,3.2,0.1c0.2,0,0.3,0.1,0.4,0.3c0.2,0.4,0.4,0.8,0.6,1.2 c0.2,0.6,0.5,1.2,0.8,1.7c0.4,0,0.7-0.1,1.1-0.2c0-0.2,0.1-0.4,0.1-0.7l0-0.8l0-1.3c0-1.4,0-2.4,0-3.1c-0.2,0-0.3,0-0.4,0l-0.7,0 c-0.1,0.2-0.1,0.3-0.2,0.4c-0.1,0.3-0.2,0.5-0.4,0.7l-0.9,0.1h-4.6l-3.4,0l-1.8,0l-0.3,0c-0.6,0-1.3,0-2.1,0c-1.2,0-1.9,0-2.1,0 c-0.2-0.3-0.5-0.6-0.6-1c0-0.1-0.1-0.1-0.2-0.2L-3541.6,6z M-3524.8,26.2h0.3c0.7,0,1.4-0.1,2.1-0.2l0.6-0.1 c2.3,0.2,3.8,0.3,4.4,0.3c0-0.1,0-0.2,0-0.3c0-0.1,0-0.4,0-0.7c-0.6-0.1-1-0.1-1.1-0.2c-0.5,0-0.9-0.2-1.3-0.4 c-0.2-0.1-0.2-0.3-0.2-0.6c0-0.4,0.1-0.7,0.3-1.1c0.7-1.9,1.1-3,1.3-3.5l5.7,0l1.2,2.9l0.6,1.5c0,0.1,0.1,0.3,0.1,0.4 c0,0.1-0.1,0.3-0.1,0.3c-0.3,0.1-0.6,0.2-0.9,0.3l-1.7,0.4c0,0.3,0,0.7,0,1l0.7,0l2.5-0.1c0.3,0,0.9,0,1.7,0c0.7,0,1.5,0,2.4,0.1 s1.7,0.1,2.4,0.1c0-0.1,0-0.3,0-0.3c0-0.2,0-0.5-0.1-0.7c-0.4-0.2-0.9-0.3-1.3-0.3c-0.3,0-0.6-0.1-0.9-0.3 c-0.2-0.2-0.3-0.5-0.4-0.7c-0.3-0.6-0.6-1.3-0.8-1.9c-0.3-0.9-0.6-1.6-0.8-2.1c-0.3-0.8-0.7-1.8-1.2-3s-1-2.5-1.6-3.8l-2.6-6.2 l-0.1-0.3h-1.6l-3.5,9.3l-3,7.9c-0.1,0.3-0.4,0.6-0.6,0.9c-0.4,0.2-0.9,0.3-1.4,0.4c-0.3,0.1-0.7,0.1-1,0.2L-3524.8,26.2z M-3517.8,17.8l2.2-5.8c0.3,0.6,0.7,1.5,1.2,2.7s0.9,2.2,1.2,3.1l-0.4,0C-3514.1,17.8-3515.4,17.8-3517.8,17.8" />
</g>
</svg>
